<?xml version="1.0" encoding="utf-8"?>
<!-- Generator: Adobe Illustrator 25.2.3, SVG Export Plug-In . SVG Version: 6.00 Build 0)  -->
<svg version="1.1" id="Layer_1" xmlns="http://www.w3.org/2000/svg" xmlns:xlink="http://www.w3.org/1999/xlink" x="0px" y="0px"
	 viewBox="0 0 128 128" style="enable-background:new 0 0 128 128;" xml:space="preserve">
<style type="text/css">
	.st0{fill:#F6C900;}
</style>
<g id="SMALL">
	<path d="M20,0h88c11,0,20,9,20,20v88c0,11-9,20-20,20H20c-11,0-20-9-20-20V20C0,9,9,0,20,0z"/>
	<path class="st0" d="M111.5,25.1c-0.1-0.1-0.1-0.1-0.2-0.1H102c-2,0-3.8,1.3-4.4,3.3L87.1,64.6l-8.4-28.9c0-0.1-0.1-0.2-0.2-0.2
		h-9.3c-2,0-3.8,1.3-4.4,3.3l-8.9,30.7L50,49.5c-0.6-1.9-2.3-3.3-4.4-3.3h-9.4c-2,0-3.8,1.3-4.4,3.3l-15.4,53.2c0,0.1,0,0.2,0,0.2
		c0.1,0.1,0.1,0.1,0.2,0.1H26c2,0,3.8-1.3,4.4-3.3l10.5-36.3l8.4,28.9c0,0.1,0.1,0.2,0.2,0.2h9.3c1.2,0,2.3-0.4,3.2-1.2
		c0.6-0.6,1-1.3,1.3-2.1l8.9-30.7L78,78.6c0.6,1.9,2.3,3.3,4.4,3.3h9.4c2,0,3.8-1.3,4.4-3.3l15.4-53.2
		C111.6,25.2,111.6,25.2,111.5,25.1z M52.3,81.8l-8.3-28.7l1.7-5.8L54,76L52.3,81.8z M82.4,80.7L74,52l1.7-5.8L84,75L82.4,80.7z"/>
</g>
</svg>
